# This file uses centimeters as units for non-parametric coordinates.

mtllib one_cube_cute.mtl
g default
v -0.500000 0.000000 0.500000
v 0.500000 0.000000 0.500000
v -0.500000 0.000000 -0.500000
v 0.500000 0.000000 -0.500000
v -0.500000 1.000000 0.500000
v 0.500000 1.000000 0.500000
v 0.500000 1.000000 -0.500000
v -0.500000 1.000000 -0.500000
vt 0.000000 0.000000
vt 1.000000 0.000000
vt 0.000000 1.000000
vt 1.000000 1.000000
vt 0.000000 0.000000
vt 1.000000 0.000000
vt 1.000000 1.000000
vt 0.000000 1.000000
vt 0.000000 0.000000
vt 1.000000 0.000000
vt 1.000000 1.000000
vt 0.000000 1.000000
vn 0.000000 1.000000 0.000000
vn 0.000000 1.000000 0.000000
vn 0.000000 1.000000 0.000000
vn 0.000000 -1.000000 0.000000
vn 0.000000 -1.000000 0.000000
vn 0.000000 -1.000000 0.000000
vn 0.000000 0.000000 1.000000
vn 0.000000 0.000000 1.000000
vn 0.000000 0.000000 1.000000
vn 1.000000 0.000000 0.000000
vn 1.000000 0.000000 0.000000
vn 1.000000 0.000000 0.000000
vn 0.000000 0.000000 -1.000000
vn 0.000000 0.000000 -1.000000
vn 0.000000 0.000000 -1.000000
vn -1.000000 0.000000 0.000000
vn -1.000000 0.000000 0.000000
vn -1.000000 0.000000 0.000000
vn 1.000000 0.000000 0.000000
vn 0.000000 1.000000 0.000000
vn 0.000000 0.000000 1.000000
vn 0.000000 0.000000 -1.000000
vn -1.000000 0.000000 0.000000
vn 0.000000 -1.000000 0.000000
s 1
g pPlane1
usemtl initialShadingGroup
f 5/9/1 6/10/2 7/11/3
s 2
f 1/5/4 3/8/5 2/6/6
s 3
f 5/9/7 2/2/8 6/10/9
s 4
f 2/2/10 7/11/11 6/10/12
s 5
f 7/11/13 3/3/14 8/12/15
s 6
f 3/3/16 5/9/17 8/12/18
s 4
f 2/2/10 4/4/19 7/11/11
s 1
f 5/9/1 7/11/3 8/12/20
s 3
f 1/1/21 2/2/8 5/9/7
s 5
f 4/4/22 3/3/14 7/11/13
s 6
f 3/3/16 1/1/23 5/9/17
s 2
f 2/6/6 3/8/5 4/7/24
